<svg width="512" height="512" viewBox="0 0 100 100" fill="none" xmlns="http://www.w3.org/2000/svg">
    <defs>
        <radialGradient id="backgroundGradient" cx="50%" cy="50%" r="50%" fx="50%" fy="50%">
            <stop offset="0%" style="stop-color:#A020F0;stop-opacity:1" />
            <stop offset="100%" style="stop-color:#480D6D;stop-opacity:1" />
        </radialGradient>
    </defs>
    <rect width="100" height="100" rx="20" fill="url(#backgroundGradient)"/>
    <g transform="translate(0, 5)">
      <path d="M70 65C70 73.2843 63.2843 80 55 80C46.7157 80 40 73.2843 40 65C40 56.7157 46.7157 50 55 50C63.2843 50 70 56.7157 70 65Z" fill="#FFD700"/>
      <path d="M70 65V15C70 12.2386 72.2386 10 75 10H80" stroke="#FFD700" stroke-width="12" stroke-linecap="round"/>
      <path d="M25 20C45 15.5 50 35 30 50C20.21 56.1 20 80 20 80" stroke="#A020F0" stroke-width="14" stroke-linecap="round" stroke-linejoin="round" />
      <circle cx="38" cy="22" r="5" fill="#A020F0" />
    </g>
</svg>
